PathFileType	3	(X/Y/Z)	D:\minhoCalibration\240510\subject2_KPNP\preferred\preferred15.trc
DataRate	CameraRate	NumFrames	NumMarkers	Units	OrigDataRate	OrigDataStartFrame	OrigNumFrames
200.0	200.0	15	10	mm	200.0	393	186	
Frame#	Time	Left_Ankle_Outer1			Left_Ankle_Inner1			Left_Knee_Outer1			Left_Knee_Inner1			Left_Wrist1			Right_Wrist1			Right_Knee_Inner1			Right_Knee_Outer1			Right_Ankle_Inner1			Right_Ankle_Outer1			
		X1	Y1	Z1	X2	Y2	Z2	X3	Y3	Z3	X4	Y4	Z4	X5	Y5	Z5	X6	Y6	Z6	X7	Y7	Z7	X8	Y8	Z8	X9	Y9	Z9	X10	Y10	Z10	
393	1.955	-622.79156	120.12212	-786.26343	-620.86682	128.04771	-732.12219	-435.30527	524.62378	-846.02252	-448.66226	509.06885	-749.6568	-445.11761	979.75201	-889.3186	-629.64337	1115.8831	-632.10999	-562.64307	647.35242	-419.41373	-625.255	700.22461	-377.16852	-683.96063	274.52448	-305.17953	-746.07483	312.81671	-234.31422
394	1.96	-622.84491	119.8495	-786.91534	-621.48138	126.86839	-733.80475	-434.51627	524.30457	-845.67023	-448.01291	508.99356	-749.62622	-443.17999	980.526	-888.16571	-632.15704	1113.1235	-633.01782	-567.51697	641.12128	-427.38284	-630.763	693.14319	-385.2027	-689.65997	265.90582	-321.20007	-753.08698	303.04675	-251.39731
395	1.965	-622.86731	119.49269	-787.62585	-621.02209	127.90166	-733.62891	-433.41342	524.1192	-845.63348	-447.7713	508.63129	-749.40881	-442.01111	980.9082	-887.9198	-634.68732	1110.2898	-634.02545	-572.27557	634.96881	-435.27249	-636.21869	686.245	-392.90955	-695.69696	257.65509	-336.86539	-760.38019	293.08725	-268.42957
396	1.97	-622.85474	119.12617	-788.495	-621.5708	127.59504	-734.16791	-432.54767	523.9433	-845.09198	-447.57629	508.33868	-749.12415	-440.55444	981.5661	-887.43195	-637.34393	1107.3868	-635.05621	-577.23608	628.98749	-443.14328	-641.63293	679.43665	-400.56442	-701.32635	249.49223	-353.04214	-767.5498	283.96948	-285.69507
397	1.975	-622.80878	118.78996	-789.56738	-621.96515	127.62082	-734.56873	-432.09177	523.242	-844.16119	-447.25671	508.04431	-748.77716	-438.79431	982.5462	-886.54108	-640.05695	1104.5559	-636.1662	-582.11096	623.08264	-450.96494	-647.03394	672.75751	-408.31558	-706.85437	241.74724	-369.31146	-774.41821	274.44247	-304.00781
398	1.98	-622.71014	118.40269	-790.65833	-622.30048	127.47568	-735.37006	-430.51904	523.49036	-843.75171	-447.22122	507.74677	-748.25037	-437.33859	983.3725	-885.92853	-642.86584	1101.7245	-637.38666	-586.92029	617.31158	-458.77713	-652.46729	666.21875	-416.09195	-712.03937	234.22644	-385.9967	-781.94183	266.12469	-321.18396
399	1.985	-622.59747	118.05327	-792.02856	-622.07422	126.40561	-738.02362	-429.4325	523.22321	-842.83026	-447.04843	507.51959	-747.71802	-436.05579	984.07782	-885.36682	-645.76764	1098.8486	-638.72473	-591.83282	611.61639	-466.48282	-657.83752	659.84619	-423.98282	-717.22552	227.16319	-402.66418	-788.43799	257.39658	-340.0134
400	1.99	-622.38879	117.65942	-793.41345	-622.89331	126.83572	-737.90656	-428.14404	523.07495	-841.96478	-446.867	507.33841	-747.11688	-434.55975	984.96198	-884.46796	-648.72906	1095.9801	-640.26837	-596.66284	606.1261	-474.19019	-663.19916	653.63049	-432.07898	-722.12317	220.42909	-419.37152	-795.65546	249.97821	-357.7247
401	1.995	-622.16003	117.25501	-794.93457	-622.99969	124.82388	-741.91345	-426.9263	522.88428	-840.88007	-446.73657	507.06827	-746.4278	-433.02628	985.84003	-883.49835	-651.77283	1093.1686	-641.80151	-601.02271	600.90662	-481.68771	-668.48962	647.68121	-440.24594	-726.75281	214.21301	-436.10236	-802.48022	242.75035	-376.19467
402	2	-621.83923	116.97276	-796.56763	-623.4754	125.11957	-742.55304	-425.42169	522.71002	-839.8316	-446.64343	506.82425	-745.72974	-431.47693	986.64801	-882.47809	-654.82312	1090.3542	-643.48669	-605.67059	595.82129	-489.38333	-673.6358	641.95667	-448.67056	-731.29822	208.25476	-452.91968	-808.92407	235.17532	-395.27728
403	2.005	-621.43829	116.7419	-798.38281	-623.31165	124.71502	-744.80743	-423.99036	522.3924	-838.73773	-446.55951	506.50662	-745.02094	-430.0141	987.35303	-881.26776	-657.89319	1087.5057	-645.39911	-610.25305	590.93115	-497.09109	-678.76562	636.53186	-457.28564	-735.69629	202.49495	-469.76526	-815.34003	229.13313	-413.79883
404	2.01	-620.95587	116.41681	-799.92957	-623.70172	125.28114	-744.43396	-423.00558	521.70599	-837.33368	-446.53293	506.20151	-744.21118	-428.39117	988.07208	-879.97247	-661.09021	1084.7534	-647.44708	-614.49414	586.22223	-504.86694	-683.76398	631.29132	-466.15588	-739.84235	197.37431	-486.49948	-821.13116	222.61049	-433.57935
405	2.015	-620.47998	116.33975	-801.7948	-624.51715	124.5621	-746.02002	-421.68591	521.25	-835.97809	-446.55438	505.9191	-743.40308	-426.6373	988.82385	-878.73932	-664.29657	1082.0275	-649.61792	-618.73407	581.75153	-512.65485	-688.83307	626.2207	-475.00912	-744.08862	192.28542	-503.13525	-826.73462	215.96115	-453.55054
406	2.02	-619.81219	115.93942	-803.06995	-623.95245	123.07506	-750.23578	-420.31122	520.8512	-834.63666	-446.91302	505.5712	-742.74603	-425.25732	989.3349	-877.32312	-667.51935	1079.3302	-651.91577	-622.87256	577.3858	-520.56763	-693.80054	621.2818	-483.91824	-748.02045	187.43562	-519.64319	-832.74854	210.10092	-473.02753
407	2.025	-619.20947	115.89591	-804.87128	-624.19946	122.94018	-751.7135	-419.01663	520.51831	-833.19031	-447.05017	505.20819	-741.84821	-423.8779	989.80414	-875.82751	-670.68896	1076.6948	-654.33905	-626.1189	573.50751	-526.94598	-698.71069	616.4198	-492.74097	-752.22125	183.33838	-536.2865	-838.23914	206.76216	-489.33243
